<svg xmlns="http://www.w3.org/2000/svg" width="1024" height="1024" viewBox="0 0 1024 1024">
<g>
<path d="M 721.36 608.22 C720.71,609.28 636.01,608.98 628.54,607.89 C617.16,606.23 605.44,601.27 594.38,593.42 C590.88,590.94 566.32,566.53 537.08,536.46 L 485.90 483.85 L 487.70 481.01 C497.37,465.75 522.15,440.36 539.05,428.39 C552.64,418.75 557.73,415.84 573.00,408.96 C596.56,398.34 604.66,394.18 610.62,389.66 C628.60,376.04 635.75,353.93 628.59,334.13 C624.96,324.11 615.21,313.64 604.46,308.21 C595.07,303.48 589.91,302.76 561.75,302.27 C547.04,302.02 535.00,301.42 535.00,300.94 C535.00,299.83 585.34,299.26 598.02,300.22 C623.65,302.17 645.03,311.91 662.50,329.58 C681.52,348.81 689.04,370.77 687.63,402.95 C686.96,418.19 687.59,422.09 689.86,416.95 C690.92,414.56 691.78,414.00 694.41,414.00 C696.57,414.00 698.43,413.17 700.00,411.50 C701.29,410.12 702.95,409.00 703.67,409.00 C704.40,409.00 705.00,408.48 705.00,407.83 C705.00,407.19 705.25,406.92 705.56,407.23 C707.89,409.56 693.04,431.14 680.58,443.53 C661.29,462.72 636.54,476.12 609.76,481.88 L 601.98 483.55 L 628.24 510.56 C688.35,572.40 721.82,607.49 721.36,608.22 ZM 293.17 603.08 C289.13,605.79 285.23,608.00 284.49,608.00 C283.48,608.00 283.86,605.82 286.01,599.25 C287.59,594.44 297.05,565.75 307.03,535.50 C317.02,505.25 331.27,462.05 338.71,439.50 C346.15,416.95 352.54,398.16 352.92,397.75 C353.30,397.33 401.28,397.11 459.55,397.25 L 565.50 397.50 L 556.50 400.38 C541.67,405.12 528.35,410.55 512.41,418.36 C452.53,447.70 402.75,487.39 341.66,554.50 C313.56,585.37 301.38,597.57 293.17,603.08 ZM 527.50 301.04 C524.20,301.45 494.92,301.83 462.43,301.89 L 403.36 302.00 L 368.93 266.75 C349.99,247.36 331.38,228.24 327.58,224.25 L 320.67 217.00 L 394.59 217.22 C430.96,217.32 456.81,217.53 456.81,217.69 C456.81,217.71 456.45,217.73 455.71,217.75 C447.78,217.94 443.15,218.43 443.52,219.03 C443.85,219.56 443.46,220.00 442.66,220.00 C441.76,220.00 442.51,221.31 444.60,223.40 C446.56,225.36 448.00,227.81 448.00,229.18 C448.00,232.26 450.64,236.00 452.82,236.00 C453.76,236.00 455.76,237.24 457.26,238.75 C461.90,243.44 465.00,247.06 465.00,247.80 C465.00,248.20 465.86,249.06 466.91,249.71 C467.96,250.37 469.12,252.27 469.49,253.94 C469.90,255.80 471.29,257.65 473.08,258.70 C474.68,259.65 476.00,260.74 476.00,261.11 C476.00,261.48 477.14,262.07 478.53,262.42 C479.93,262.77 481.57,264.15 482.18,265.50 C482.79,266.84 483.60,267.75 483.97,267.52 C484.35,267.28 485.45,268.90 486.43,271.12 C487.41,273.33 489.23,275.60 490.48,276.17 C492.18,276.95 493.30,279.11 494.95,284.79 C496.17,288.95 497.46,291.91 497.83,291.36 C499.05,289.53 502.05,288.96 502.62,290.44 C502.91,291.21 504.81,292.63 506.83,293.59 C508.85,294.55 509.94,295.52 509.25,295.75 C507.92,296.19 507.48,298.08 508.75,297.88 C512.09,297.35 520.01,298.18 519.50,299.00 C519.11,299.63 521.61,300.05 526.19,300.15 L 533.50 300.29 ZM 171.00 747.50 L 171.00 773.00 L 148.00 773.00 L 148.00 711.00 L 178.25 710.99 C207.95,710.98 208.59,710.94 213.58,708.61 C230.30,700.83 234.12,681.44 221.23,669.82 C214.59,663.83 213.30,663.65 172.93,663.25 L 136.35 662.89 L 126.44 652.94 L 116.54 643.00 L 163.52 643.02 C215.46,643.04 219.39,643.39 230.74,649.14 C246.65,657.18 256.23,675.75 253.14,692.53 C250.49,706.92 241.92,718.11 228.78,724.35 C224.78,726.25 219.99,728.12 218.15,728.51 C215.72,729.01 215.10,729.50 215.90,730.30 C216.62,731.02 217.00,737.53 217.00,748.94 L 217.00 766.48 L 194.74 744.24 C182.50,732.01 172.15,722.00 171.74,722.00 C171.33,722.00 171.00,733.47 171.00,747.50 ZM 598.87 772.55 C591.44,774.53 577.82,774.31 570.95,772.11 C557.79,767.91 546.42,758.41 541.21,747.28 C538.78,742.09 538.50,740.37 538.50,730.48 C538.50,720.05 538.68,719.10 541.77,712.82 C547.22,701.74 558.86,692.59 572.12,688.94 C574.53,688.28 580.78,687.75 586.00,687.77 C601.52,687.81 612.11,692.13 621.82,702.40 C630.95,712.05 635.29,724.96 633.20,736.22 C629.87,754.08 616.98,767.73 598.87,772.55 ZM 348.47 772.47 C342.07,774.13 325.98,774.39 319.76,772.92 C317.70,772.43 312.78,770.40 308.82,768.41 C275.80,751.78 276.61,708.41 310.23,692.47 C322.16,686.82 340.45,686.15 353.00,690.90 C360.09,693.58 368.79,700.45 372.85,706.58 C377.01,712.87 380.00,722.70 380.00,730.11 L 380.00 736.00 L 303.75 736.00 L 304.40 739.23 C305.36,744.05 309.35,749.46 314.60,753.07 C326.81,761.47 343.51,760.99 355.00,751.91 C357.54,749.90 358.93,748.77 360.37,748.73 C362.17,748.67 364.02,750.35 368.27,754.18 L 368.50 754.39 L 372.50 758.00 L 368.05 761.95 C362.27,767.08 355.79,770.56 348.47,772.47 ZM 682.00 745.50 L 681.50 772.50 L 672.19 772.79 L 662.89 773.08 L 663.19 744.29 L 663.50 715.50 L 666.66 709.50 C668.41,706.20 671.78,701.61 674.16,699.31 C690.27,683.75 724.12,683.20 740.56,698.23 C751.67,708.39 753.23,714.71 752.81,748.00 L 752.50 772.50 L 743.34 772.79 L 734.17 773.07 L 733.84 746.76 C733.50,720.81 733.46,720.37 730.95,715.48 C727.60,708.99 721.61,704.48 714.33,702.97 C701.61,700.32 689.79,705.23 684.15,715.50 C682.77,718.01 682.42,722.95 682.00,745.50 ZM 891.23 772.01 C883.67,774.34 866.79,774.63 858.27,772.56 C851.88,771.01 841.01,765.77 838.54,763.04 C836.77,761.09 836.82,760.92 840.61,756.33 C842.75,753.74 844.98,750.99 845.56,750.21 C846.43,749.05 847.43,749.36 851.40,752.04 C861.37,758.77 877.84,761.16 885.90,757.05 C892.76,753.55 893.64,746.43 887.68,742.53 C886.36,741.66 879.18,739.42 871.73,737.54 C864.28,735.66 855.97,733.00 853.25,731.63 C840.82,725.33 836.79,712.86 843.49,701.43 C852.52,686.01 883.90,682.67 903.42,695.05 L 908.14 698.04 L 904.82 702.13 C902.99,704.38 900.79,707.11 899.93,708.20 C898.37,710.16 898.31,710.15 894.51,707.57 C888.67,703.61 880.81,701.67 872.86,702.24 C862.91,702.95 857.83,707.19 859.40,713.46 C860.39,717.41 864.84,719.48 881.10,723.53 C903.12,729.01 909.56,734.09 910.72,746.90 C911.20,752.10 910.90,753.69 908.53,758.54 C905.20,765.33 900.18,769.25 891.23,772.01 ZM 472.40 764.24 L 467.50 772.99 L 459.37 772.99 C454.04,773.00 450.91,772.57 450.28,771.75 C449.16,770.30 445.16,763.23 422.95,723.50 C414.04,707.55 406.13,693.61 405.37,692.53 C404.62,691.44 404.00,690.19 404.00,689.74 C404.00,689.30 408.99,689.06 415.09,689.22 L 426.17 689.50 L 442.70 719.80 C451.80,736.46 459.36,749.96 459.51,749.80 C459.66,749.63 467.06,736.22 475.97,720.00 C484.87,703.78 492.49,690.15 492.91,689.71 C493.33,689.28 498.46,689.06 504.31,689.21 L 514.94 689.50 L 507.16 703.00 C499.50,716.29 482.01,747.10 472.40,764.24 ZM 577.32 757.62 C583.56,759.67 593.00,758.67 599.16,755.32 C616.48,745.89 620.03,724.10 606.47,710.53 C600.62,704.69 594.96,702.53 585.50,702.53 C576.37,702.53 571.28,704.57 564.67,710.86 C549.00,725.75 555.71,750.54 577.32,757.62 ZM 806.00 689.00 L 806.00 773.00 L 787.00 773.00 L 787.00 689.00 ZM 304.56 720.75 L 303.87 723.00 L 332.43 723.00 C348.14,723.00 361.00,722.76 361.00,722.47 C361.00,722.18 360.35,720.38 359.55,718.47 C357.16,712.75 353.31,708.49 347.75,705.41 C342.97,702.76 341.66,702.50 333.00,702.53 C325.16,702.56 322.76,702.96 319.28,704.79 C311.43,708.92 306.59,714.17 304.56,720.75 ZM 710.50 400.01 C709.61,402.81 708.00,402.49 708.00,399.50 C708.00,398.12 708.38,397.00 708.85,397.00 C709.31,397.00 710.20,395.99 710.81,394.75 C711.89,392.59 711.92,392.61 711.53,395.26 C711.31,396.78 710.84,398.91 710.50,400.01 Z" fill="rgb(9,25,50)"/>
<path d="M 527.50 301.04 L 533.50 300.29 L 526.19 300.15 C521.61,300.05 519.11,299.63 519.50,299.00 C520.01,298.18 512.09,297.35 508.75,297.88 C507.48,298.08 507.92,296.19 509.25,295.75 C509.94,295.52 508.85,294.55 506.83,293.59 C504.81,292.63 502.91,291.21 502.62,290.44 C502.05,288.96 499.05,289.53 497.83,291.36 C497.46,291.91 496.17,288.95 494.95,284.79 C493.30,279.11 492.18,276.95 490.48,276.17 C489.23,275.60 487.41,273.33 486.43,271.12 C485.45,268.90 484.35,267.28 483.97,267.52 C483.60,267.75 482.79,266.84 482.18,265.50 C481.57,264.15 479.93,262.77 478.53,262.42 C477.14,262.07 476.00,261.48 476.00,261.11 C476.00,260.74 474.68,259.65 473.08,258.70 C471.29,257.65 469.90,255.80 469.49,253.94 C469.12,252.27 467.96,250.37 466.91,249.71 C465.86,249.06 465.00,248.20 465.00,247.80 C465.00,247.06 461.90,243.44 457.26,238.75 C455.76,237.24 453.76,236.00 452.82,236.00 C450.64,236.00 448.00,232.26 448.00,229.18 C448.00,227.81 446.56,225.36 444.60,223.40 C442.51,221.31 441.76,220.00 442.66,220.00 C443.46,220.00 443.85,219.56 443.52,219.03 C443.15,218.43 447.78,217.94 455.71,217.75 C456.45,217.73 456.81,217.71 456.81,217.69 C456.81,217.53 430.96,217.32 394.59,217.22 L 320.67 217.00 L 327.58 224.25 C331.38,228.24 349.99,247.36 368.93,266.75 L 389.13 287.43 L 361.95 259.82 C339.15,236.66 320.34,217.31 320.15,216.82 C319.95,216.30 377.69,216.07 459.65,216.26 L 599.50 216.59 L 609.14 218.79 C628.49,223.21 641.47,228.18 655.80,236.65 C698.66,261.97 724.31,311.39 720.02,360.32 C718.88,373.29 715.82,385.80 711.11,397.57 C711.28,396.78 711.43,395.95 711.53,395.26 C711.92,392.61 711.89,392.59 710.81,394.75 C710.20,395.99 709.31,397.00 708.85,397.00 C708.38,397.00 708.00,398.12 708.00,399.50 C708.00,401.35 708.62,402.18 709.30,401.88 C708.04,404.73 706.68,407.53 705.23,410.28 C705.84,408.73 705.99,407.65 705.56,407.23 C705.25,406.92 705.00,407.19 705.00,407.83 C705.00,408.48 704.40,409.00 703.67,409.00 C702.95,409.00 701.29,410.12 700.00,411.50 C698.43,413.17 696.57,414.00 694.41,414.00 C691.78,414.00 690.92,414.56 689.86,416.95 C687.59,422.09 686.96,418.19 687.63,402.95 C689.04,370.77 681.52,348.81 662.50,329.58 C645.03,311.91 623.65,302.17 598.02,300.22 C585.34,299.26 535.00,299.83 535.00,300.94 C535.00,301.42 547.04,302.02 561.75,302.27 C572.91,302.46 580.46,302.69 586.09,303.19 C576.21,302.60 554.15,302.46 495.95,302.26 L 416.12 301.98 L 462.43 301.89 C494.92,301.83 524.20,301.45 527.50,301.04 ZM 621.39 321.96 C624.58,325.84 627.10,330.02 628.59,334.13 C629.56,336.81 630.27,339.54 630.72,342.28 C629.51,335.79 626.78,329.44 622.52,323.48 ZM 696.26 424.93 C676.43,453.19 645.83,474.12 609.76,481.88 C636.54,476.12 661.29,462.72 680.58,443.53 C685.88,438.26 691.61,431.34 696.26,424.93 ZM 610.11 390.05 C604.18,394.42 595.89,398.64 573.00,408.96 C592.65,400.10 603.18,394.93 610.11,390.05 ZM 595.19 304.60 C598.52,305.44 601.24,306.59 604.46,308.21 C605.50,308.73 606.52,309.31 607.54,309.92 C603.85,307.79 599.75,306.02 595.19,304.60 ZM 626.13 371.26 C624.61,374.28 622.76,377.18 620.60,379.91 C620.72,379.75 620.84,379.60 620.96,379.44 C622.97,376.77 624.70,374.04 626.13,371.26 Z" fill="rgb(30,54,104)"/>
<path d="M 416.75 608.28 C411.74,609.06 347.00,609.25 347.00,608.49 C347.00,606.95 368.65,575.66 379.87,561.00 C394.08,542.42 407.27,527.56 427.42,507.46 C452.56,482.36 469.47,468.27 496.50,449.89 C511.27,439.85 543.90,421.30 550.00,419.47 C551.10,419.14 555.79,417.06 561.29,414.48 C553.81,418.26 548.47,421.71 539.05,428.39 C522.15,440.36 497.37,465.75 487.70,481.01 L 485.90 483.85 L 527.36 526.47 C504.54,503.10 486.91,485.34 486.33,485.19 C482.97,484.32 448.11,548.29 423.14,601.14 C420.37,607.00 419.62,607.84 416.75,608.28 ZM 255.80 773.15 C251.69,774.31 230.65,773.86 224.31,772.47 C223.77,772.35 221.06,770.00 217.00,766.20 L 217.00 748.94 C217.00,738.93 216.70,732.69 216.15,730.82 L 236.51 751.05 C255.88,770.30 257.86,772.57 255.80,773.15 ZM 800.17 671.97 C798.15,672.53 796.05,672.97 795.50,672.96 C793.25,672.88 788.34,670.09 786.00,667.55 C783.92,665.30 783.50,663.84 783.50,658.94 C783.50,653.50 783.78,652.75 787.09,649.44 C796.08,640.45 809.99,646.38 810.00,659.22 C810.00,663.06 809.43,664.58 806.92,667.44 C805.19,669.41 802.23,671.40 800.17,671.97 ZM 210.58 760.07 C206.63,756.23 202.10,751.75 197.40,747.00 C193.13,742.68 189.07,738.62 185.49,735.07 C188.34,737.87 191.47,740.98 194.74,744.24 ZM 222.83 726.93 C224.71,726.19 226.84,725.27 228.78,724.35 C241.92,718.11 250.49,706.92 253.14,692.53 C250.09,709.12 239.79,720.79 222.83,726.93 ZM 615.15 604.48 C619.12,605.91 623.08,606.97 627.01,607.65 C624.56,607.39 622.95,607.07 621.50,606.65 C619.52,606.09 617.38,605.35 615.15,604.48 ZM 570.93 409.90 C576.22,407.41 581.49,405.00 584.38,403.76 C580.96,405.35 577.19,407.07 573.00,408.96 C572.29,409.28 571.60,409.59 570.93,409.90 ZM 171.00 747.50 C171.00,733.47 171.33,722.00 171.74,722.00 C171.75,722.00 171.77,722.01 171.80,722.02 C171.36,722.60 171.00,733.84 171.00,747.50 ZM 610.11 390.05 C609.43,390.52 608.73,391.00 607.98,391.48 C611.65,388.96 614.75,386.36 617.38,383.63 C615.34,385.78 613.08,387.80 610.62,389.66 C610.45,389.79 610.28,389.92 610.11,390.05 ZM 703.19 608.82 C712.69,608.73 719.63,608.57 721.09,608.31 C721.08,608.32 721.08,608.32 721.08,608.32 C720.82,608.58 713.85,608.75 703.19,608.82 ZM 215.78 729.32 C216.13,729.02 216.90,728.77 218.15,728.51 C218.20,728.50 218.25,728.49 218.30,728.47 ZM 592.26 591.63 C593.25,592.52 593.96,593.13 594.38,593.42 C595.50,594.22 596.63,594.98 597.76,595.72 C596.61,594.99 595.51,594.26 594.50,593.53 C594.06,593.23 593.31,592.58 592.26,591.63 ZM 620.46 380.09 C620.63,379.88 620.79,379.66 620.95,379.45 C620.83,379.60 620.72,379.76 620.60,379.91 C620.55,379.97 620.50,380.03 620.46,380.09 Z" fill="rgb(197,148,65)"/>
<path d="M 0.00 512.00 L 0.00 0.00 L 512.00 0.00 L 1024.00 0.00 L 1024.00 512.00 L 1024.00 1024.00 L 512.00 1024.00 L 0.00 1024.00 L 0.00 512.00 ZM 255.80 773.15 C257.86,772.57 255.88,770.30 236.51,751.05 L 214.93 729.61 L 221.43 727.42 C239.23,721.42 250.00,709.57 253.14,692.53 C256.23,675.75 246.65,657.18 230.74,649.14 C219.39,643.39 215.46,643.04 163.52,643.02 L 116.54 643.00 L 126.44 652.94 L 136.35 662.89 L 172.93 663.25 C213.30,663.65 214.59,663.83 221.23,669.82 C234.12,681.44 230.30,700.83 213.58,708.61 C208.59,710.94 207.95,710.98 178.25,710.99 L 148.00 711.00 L 148.00 742.00 L 148.00 773.00 L 159.50 773.00 L 171.00 773.00 L 171.00 747.50 C171.00,733.47 171.38,722.00 171.83,722.00 C172.29,722.00 183.80,733.25 197.40,747.00 C211.00,760.74 223.11,772.21 224.31,772.47 C230.65,773.86 251.69,774.31 255.80,773.15 ZM 348.47 772.47 C355.79,770.56 362.27,767.08 368.05,761.95 L 372.50 758.00 L 368.50 754.39 C360.65,747.30 360.79,747.33 355.00,751.91 C343.51,760.99 326.81,761.47 314.60,753.07 C309.35,749.46 305.36,744.05 304.40,739.23 L 303.75 736.00 L 341.88 736.00 L 380.00 736.00 L 380.00 730.11 C380.00,722.70 377.01,712.87 372.85,706.58 C368.79,700.45 360.09,693.58 353.00,690.90 C340.45,686.15 322.16,686.82 310.23,692.47 C276.61,708.41 275.80,751.78 308.82,768.41 C312.78,770.40 317.70,772.43 319.76,772.92 C325.98,774.39 342.07,774.13 348.47,772.47 ZM 598.87 772.55 C616.98,767.73 629.87,754.08 633.20,736.22 C635.29,724.96 630.95,712.05 621.82,702.40 C612.11,692.13 601.52,687.81 586.00,687.77 C580.78,687.75 574.53,688.28 572.12,688.94 C558.86,692.59 547.22,701.74 541.77,712.82 C538.68,719.10 538.50,720.05 538.50,730.48 C538.50,740.37 538.78,742.09 541.21,747.28 C546.42,758.41 557.79,767.91 570.95,772.11 C577.82,774.31 591.44,774.53 598.87,772.55 ZM 891.23 772.01 C900.18,769.25 905.20,765.33 908.53,758.54 C910.90,753.69 911.20,752.10 910.72,746.90 C909.56,734.09 903.12,729.01 881.10,723.53 C864.84,719.48 860.39,717.41 859.40,713.46 C857.83,707.19 862.91,702.95 872.86,702.24 C880.81,701.67 888.67,703.61 894.51,707.57 C898.31,710.15 898.37,710.16 899.93,708.20 C900.79,707.11 902.99,704.38 904.82,702.13 L 908.14 698.04 L 903.42 695.05 C883.90,682.67 852.52,686.01 843.49,701.43 C836.79,712.86 840.82,725.33 853.25,731.63 C855.97,733.00 864.28,735.66 871.73,737.54 C879.18,739.42 886.36,741.66 887.68,742.53 C893.64,746.43 892.76,753.55 885.90,757.05 C877.84,761.16 861.37,758.77 851.40,752.04 C847.43,749.36 846.43,749.05 845.56,750.21 C844.98,750.99 842.75,753.74 840.61,756.33 C836.82,760.92 836.77,761.09 838.54,763.04 C841.01,765.77 851.88,771.01 858.27,772.56 C866.79,774.63 883.67,774.34 891.23,772.01 ZM 472.40 764.24 C482.01,747.10 499.50,716.29 507.16,703.00 L 514.94 689.50 L 504.31 689.21 C498.46,689.06 493.33,689.28 492.91,689.71 C492.49,690.15 484.87,703.78 475.97,720.00 C467.06,736.22 459.66,749.63 459.51,749.80 C459.36,749.96 451.80,736.46 442.70,719.80 L 426.17 689.50 L 415.09 689.22 C408.99,689.06 404.00,689.30 404.00,689.74 C404.00,690.19 404.62,691.44 405.37,692.53 C406.13,693.61 414.04,707.55 422.95,723.50 C445.16,763.23 449.16,770.30 450.28,771.75 C450.91,772.57 454.04,773.00 459.37,772.99 L 467.50 772.99 L 472.40 764.24 ZM 682.00 745.50 C682.42,722.95 682.77,718.01 684.15,715.50 C689.79,705.23 701.61,700.32 714.33,702.97 C721.61,704.48 727.60,708.99 730.95,715.48 C733.46,720.37 733.50,720.81 733.84,746.76 L 734.17 773.07 L 743.34 772.79 L 752.50 772.50 L 752.81 748.00 C753.23,714.71 751.67,708.39 740.56,698.23 C724.12,683.20 690.27,683.75 674.16,699.31 C671.78,701.61 668.41,706.20 666.66,709.50 L 663.50 715.50 L 663.19 744.29 L 662.89 773.08 L 672.19 772.79 L 681.50 772.50 L 682.00 745.50 ZM 806.00 731.00 L 806.00 689.00 L 796.50 689.00 L 787.00 689.00 L 787.00 731.00 L 787.00 773.00 L 796.50 773.00 L 806.00 773.00 L 806.00 731.00 ZM 800.17 671.97 C802.23,671.40 805.19,669.41 806.92,667.44 C809.43,664.58 810.00,663.06 810.00,659.22 C809.99,646.38 796.08,640.45 787.09,649.44 C783.78,652.75 783.50,653.50 783.50,658.94 C783.50,663.84 783.92,665.30 786.00,667.55 C788.34,670.09 793.25,672.88 795.50,672.96 C796.05,672.97 798.15,672.53 800.17,671.97 ZM 416.75 608.28 C419.62,607.84 420.37,607.00 423.14,601.14 C448.11,548.29 482.97,484.32 486.33,485.19 C486.99,485.36 510.21,508.82 537.92,537.31 C566.44,566.64 591.00,591.04 594.50,593.53 C601.82,598.76 613.15,604.26 621.50,606.65 C626.68,608.14 633.84,608.42 673.88,608.76 C699.39,608.97 720.63,608.77 721.08,608.32 C721.84,607.56 692.45,576.61 628.24,510.56 L 601.98 483.55 L 609.76 481.88 C669.89,468.94 714.82,419.40 720.02,360.32 C724.31,311.39 698.66,261.97 655.80,236.65 C641.47,228.18 628.49,223.21 609.14,218.79 L 599.50 216.59 L 459.65 216.26 C377.69,216.07 319.95,216.30 320.15,216.82 C320.34,217.31 339.15,236.66 361.95,259.82 L 403.41 301.93 L 495.95 302.26 C581.48,302.56 588.95,302.72 594.46,304.38 C606.86,308.11 615.99,314.33 622.52,323.48 C634.95,340.90 634.37,361.67 620.96,379.44 C614.11,388.51 603.02,395.93 585.00,403.50 C581.42,405.00 572.65,409.04 565.50,412.48 C558.35,415.91 551.38,419.06 550.00,419.47 C543.90,421.30 511.27,439.85 496.50,449.89 C469.47,468.27 452.56,482.36 427.42,507.46 C407.27,527.56 394.08,542.42 379.87,561.00 C368.65,575.66 347.00,606.95 347.00,608.49 C347.00,609.25 411.74,609.06 416.75,608.28 ZM 293.17 603.08 C301.38,597.57 313.56,585.37 341.66,554.50 C402.75,487.39 452.53,447.70 512.41,418.36 C528.35,410.55 541.67,405.12 556.50,400.38 L 565.50 397.50 L 459.55 397.25 C401.28,397.11 353.30,397.33 352.92,397.75 C352.54,398.16 346.15,416.95 338.71,439.50 C331.27,462.05 317.02,505.25 307.03,535.50 C297.05,565.75 287.59,594.44 286.01,599.25 C283.86,605.82 283.48,608.00 284.49,608.00 C285.23,608.00 289.13,605.79 293.17,603.08 ZM 304.56 720.75 C306.59,714.17 311.43,708.92 319.28,704.79 C322.76,702.96 325.16,702.56 333.00,702.53 C341.66,702.50 342.97,702.76 347.75,705.41 C353.31,708.49 357.16,712.75 359.55,718.47 C360.35,720.38 361.00,722.18 361.00,722.47 C361.00,722.76 348.14,723.00 332.43,723.00 L 303.87 723.00 L 304.56 720.75 ZM 577.32 757.62 C555.71,750.54 549.00,725.75 564.67,710.86 C571.28,704.57 576.37,702.53 585.50,702.53 C594.96,702.53 600.62,704.69 606.47,710.53 C620.03,724.10 616.48,745.89 599.16,755.32 C593.00,758.67 583.56,759.67 577.32,757.62 Z" fill="rgb(252,252,252)"/>
</g>
</svg>